<?xml version="1.0" standalone="no"?>
<!DOCTYPE svg PUBLIC "-//W3C//DTD SVG 20010904//EN"
 "http://www.w3.org/TR/2001/REC-SVG-20010904/DTD/svg10.dtd">
<svg version="1.0" xmlns="http://www.w3.org/2000/svg"
 width="700.000000pt" height="700.000000pt" viewBox="0 0 700.000000 700.000000"
 preserveAspectRatio="xMidYMid meet">
<metadata>
Created by potrace 1.14, written by Peter Selinger 2001-2017
</metadata>
<g transform="translate(0.000000,700.000000) scale(0.100000,-0.100000)"
fill="#000000" stroke="none">
<path d="M0 3445 l0 -3445 3445 0 3445 0 0 110 0 110 -2458 0 c-1351 0 -2852
0 -3334 0 l-878 0 0 3335 0 3335 -110 0 -110 0 0 -3445z"/>
<path d="M6500 4901 c-19 -10 -90 -52 -157 -92 -233 -140 -1438 -864 -1455
-874 -9 -5 -43 -26 -75 -45 -32 -19 -65 -38 -73 -43 -8 -4 -27 -15 -42 -25
-33 -21 -186 -112 -214 -128 -12 -6 -39 -23 -60 -38 -21 -14 -44 -26 -51 -26
-7 0 -395 191 -861 424 -467 233 -857 425 -868 426 -56 6 -74 -5 -254 -160
-25 -21 -79 -67 -121 -102 -253 -212 -943 -793 -1059 -892 -14 -12 -95 -80
-180 -151 -85 -72 -166 -140 -180 -152 -14 -11 -47 -40 -75 -62 -27 -23 -61
-52 -75 -65 -14 -12 -68 -57 -120 -101 -120 -99 -140 -122 -140 -163 0 -61 40
-108 95 -113 52 -4 55 -2 271 181 55 47 122 104 150 126 27 23 128 108 224
189 96 81 197 166 224 189 114 95 143 120 191 160 28 24 138 117 245 207 107
90 235 197 284 239 49 41 164 138 255 214 91 77 168 142 171 145 3 4 25 22 49
41 l44 34 666 -333 c366 -183 751 -376 855 -428 158 -79 195 -94 222 -90 20 3
467 266 1071 629 571 343 1042 625 1048 627 34 14 146 93 154 110 22 41 13 91
-23 127 -40 40 -82 45 -136 15z"/>
</g>
</svg>
